<svg width="30" height="31" viewBox="0 0 30 31" fill="none" xmlns="http://www.w3.org/2000/svg">
<path d="M23.75 12.843V6.5613C23.75 5.18253 22.6288 4.06128 21.25 4.06128H2.49996C1.12119 4.06128 0 5.18247 0 6.5613V19.0613C0 20.44 1.12119 21.5613 2.50002 21.5613H16.5165C17.3354 24.4425 19.9847 26.5613 23.125 26.5613C24.3335 26.5613 25.5219 26.2433 26.5631 25.6409C26.8616 25.4682 26.9641 25.0861 26.7908 24.787C26.618 24.4879 26.2354 24.3848 25.9369 24.5594C25.086 25.0513 24.1137 25.3113 23.125 25.3113C20.0231 25.3113 17.5 22.7881 17.5 19.6863C17.5 16.5845 20.0232 14.0613 23.125 14.0613C26.2267 14.0613 28.75 16.5845 28.75 19.6863V20.3113C28.75 21.0004 28.189 21.5613 27.5 21.5613C26.8109 21.5613 26.25 21.0004 26.25 20.3113V17.8113C26.25 17.4658 25.9704 17.1863 25.625 17.1863C25.4569 17.1863 25.3058 17.2543 25.1936 17.3621C24.6412 16.8698 23.9213 16.5613 23.125 16.5613C21.402 16.5613 20 17.9632 20 19.6862C20 21.4092 21.402 22.8113 23.125 22.8113C24.0564 22.8113 24.8846 22.3934 25.4576 21.7448C25.9104 22.3879 26.6553 22.8113 27.5 22.8113C28.8788 22.8113 30 21.6901 30 20.3113V19.6862C30 16.1063 27.2487 13.1602 23.75 12.843ZM2.50002 5.31126H21.25C21.276 5.31126 21.2978 5.32456 21.3235 5.32614L12.3889 12.6599C12.071 12.8601 11.6101 12.8186 11.4032 12.6917L2.4273 5.32603C2.45268 5.3245 2.47424 5.31126 2.50002 5.31126ZM22.5 12.843C19.0013 13.1602 16.25 16.1063 16.25 19.6863C16.25 19.8972 16.2629 20.1051 16.2816 20.3113H2.50002C1.81096 20.3113 1.25004 19.7504 1.25004 19.0613V6.5613C1.25004 6.38429 1.28912 6.21712 1.3558 6.06442L10.6654 13.6988C11.0291 13.9362 11.4472 14.0614 11.8751 14.0614C12.2865 14.0614 12.6887 13.9454 13.0427 13.7257C13.0781 13.7067 13.1116 13.6842 13.1434 13.6579L22.3942 6.06431C22.4609 6.21712 22.5001 6.38429 22.5001 6.56136V12.843H22.5ZM23.125 21.5613C22.0911 21.5613 21.25 20.7202 21.25 19.6863C21.25 18.6524 22.0911 17.8113 23.125 17.8113C24.159 17.8113 25 18.6524 25 19.6863C25 20.7202 24.159 21.5613 23.125 21.5613Z" fill="white"/>
</svg>
