<svg width="20" height="21" viewBox="0 0 20 21" fill="none" xmlns="http://www.w3.org/2000/svg">
<g clip-path="url(#clip0)">
<path d="M17.5 0.311523H2.5C1.12083 0.311523 0 1.43236 0 2.81152V17.8115C0 19.1899 1.12083 20.3115 2.5 20.3115H17.5C18.8783 20.3115 20 19.1899 20 17.8115V2.81152C20 1.43236 18.8783 0.311523 17.5 0.311523Z" fill="#3B5999"/>
<path d="M13.75 10.3115V7.81152C13.75 7.12152 14.31 7.18652 15 7.18652H16.25V4.06152H13.75C11.6783 4.06152 10 5.73986 10 7.81152V10.3115H7.5V13.4365H10V20.3115H13.75V13.4365H15.625L16.875 10.3115H13.75Z" fill="white"/>
</g>
<defs>
<clipPath id="clip0">
<rect width="20" height="20" fill="white" transform="translate(0 0.311523)"/>
</clipPath>
</defs>
</svg>
