<svg width="20" height="21" viewBox="0 0 20 21" fill="none" xmlns="http://www.w3.org/2000/svg">
<g clip-path="url(#clip0)">
<path d="M1.24976 1.67235C-0.321907 3.30485 -0.000240855 5.03902 -0.000240855 10.3074C-0.000240855 14.6824 -0.763574 19.0682 3.23143 20.1007C4.47893 20.4215 15.5323 20.4215 16.7781 20.099C18.4414 19.6699 19.7948 18.3207 19.9798 15.9682C20.0056 15.6399 20.0056 4.98069 19.9789 4.64569C19.7823 2.13985 18.2398 0.695688 16.2073 0.403188C15.7414 0.335688 15.6481 0.315688 13.2581 0.311521C4.78059 0.315688 2.92226 -0.061812 1.24976 1.67235Z" fill="url(#paint0_linear)"/>
<path d="M9.99883 2.92729C6.973 2.92729 4.09966 2.65813 3.00216 5.47479C2.54883 6.63813 2.61466 8.14896 2.61466 10.3123C2.61466 12.2106 2.55383 13.9948 3.00216 15.149C4.09716 17.9673 6.99383 17.6973 9.99716 17.6973C12.8947 17.6973 15.8822 17.999 16.993 15.149C17.4472 13.974 17.3805 12.4856 17.3805 10.3123C17.3805 7.42729 17.5397 5.56479 16.1405 4.16646C14.7238 2.74979 12.808 2.92729 9.9955 2.92729H9.99883ZM9.33716 4.25813C15.6488 4.24813 16.4522 3.54646 16.0088 13.294C15.8513 16.7415 13.2263 16.3631 9.99966 16.3631C4.11633 16.3631 3.94716 16.1948 3.94716 10.309C3.94716 4.35479 4.41383 4.26146 9.33716 4.25646V4.25813ZM13.9405 5.48396C13.4513 5.48396 13.0547 5.88063 13.0547 6.36979C13.0547 6.85896 13.4513 7.25562 13.9405 7.25562C14.4297 7.25562 14.8263 6.85896 14.8263 6.36979C14.8263 5.88063 14.4297 5.48396 13.9405 5.48396ZM9.99883 6.51979C7.90466 6.51979 6.20716 8.21813 6.20716 10.3123C6.20716 12.4065 7.90466 14.104 9.99883 14.104C12.093 14.104 13.7897 12.4065 13.7897 10.3123C13.7897 8.21813 12.093 6.51979 9.99883 6.51979ZM9.99883 7.85062C13.253 7.85062 13.2572 12.774 9.99883 12.774C6.7455 12.774 6.7405 7.85062 9.99883 7.85062Z" fill="white"/>
</g>
<defs>
<linearGradient id="paint0_linear" x1="1.28811" y1="19.0341" x2="19.876" y2="2.9465" gradientUnits="userSpaceOnUse">
<stop stop-color="#FFDD55"/>
<stop offset="0.5" stop-color="#FF543E"/>
<stop offset="1" stop-color="#C837AB"/>
</linearGradient>
<clipPath id="clip0">
<rect width="20" height="20" fill="white" transform="translate(0 0.311523)"/>
</clipPath>
</defs>
</svg>
