<svg width="24" height="26" viewBox="0 0 24 26" fill="none" xmlns="http://www.w3.org/2000/svg">
<g clip-path="url(#clip0)">
<path d="M12 0.311279C7.34756 0.311279 3.5625 4.09634 3.5625 8.74878C3.5625 10.3207 3.99792 11.8547 4.82198 13.1856L11.5197 23.9789C11.648 24.1857 11.874 24.3113 12.1171 24.3113C12.119 24.3113 12.1208 24.3113 12.1227 24.3113C12.3679 24.3094 12.5944 24.1798 12.7204 23.9695L19.2474 13.0716C20.026 11.7688 20.4375 10.274 20.4375 8.74878C20.4375 4.09634 16.6524 0.311279 12 0.311279ZM18.0406 12.3496L12.1065 22.2575L6.0172 12.4447C5.33128 11.3369 4.95938 10.0589 4.95938 8.74878C4.95938 4.87175 8.12297 1.70815 12 1.70815C15.877 1.70815 19.0359 4.87175 19.0359 8.74878C19.0359 10.0201 18.6885 11.2654 18.0406 12.3496Z" fill="white"/>
<path d="M3 24.3113H21" stroke="white" stroke-width="1.2" stroke-linecap="round"/>
<path d="M12 4.53003C9.67378 4.53003 7.78125 6.42256 7.78125 8.74878C7.78125 11.0601 9.64298 12.9675 12 12.9675C14.3861 12.9675 16.2188 11.0347 16.2188 8.74878C16.2188 6.42256 14.3262 4.53003 12 4.53003ZM12 11.5707C10.4411 11.5707 9.17813 10.3035 9.17813 8.74878C9.17813 7.19797 10.4492 5.9269 12 5.9269C13.5508 5.9269 14.8172 7.19797 14.8172 8.74878C14.8172 10.2808 13.5836 11.5707 12 11.5707Z" fill="white"/>
</g>
<defs>
<clipPath id="clip0">
<rect width="24" height="25" fill="white" transform="translate(0 0.311279)"/>
</clipPath>
</defs>
</svg>
