<svg width="26" height="27" viewBox="0 0 26 27" fill="none" xmlns="http://www.w3.org/2000/svg">
<g clip-path="url(#clip0)">
<path d="M25.3306 19.488L22.0984 16.2558C21.2073 15.3647 19.7573 15.3647 18.8662 16.2558L17.397 17.7249C16.722 18.4 15.6235 18.3998 14.9486 17.7252L8.58065 11.3518C7.90398 10.6751 7.90388 9.57993 8.58065 8.90317C8.81729 8.66653 9.49679 7.98702 10.0498 7.43401C10.937 6.54687 10.9494 5.10138 10.0489 4.20102L6.81762 0.979866C5.92651 0.0888068 4.47655 0.0888068 3.58782 0.97753C2.92279 1.63677 2.70829 1.84944 2.4101 2.14504C-0.803342 5.35843 -0.803342 10.587 2.40995 13.8003L12.4998 23.8954C15.7208 27.1164 20.934 27.1167 24.1552 23.8954L25.3306 22.7201C26.2217 21.829 26.2217 20.3791 25.3306 19.488ZM4.66286 2.05724C4.95988 1.76022 5.44312 1.76017 5.7411 2.05805L8.97242 5.27921C9.27015 5.57694 9.27015 6.05881 8.97242 6.35659L8.43368 6.89528L4.12692 2.58852L4.66286 2.05724ZM13.5774 22.8182L3.48748 12.723C1.00133 10.2368 0.864673 6.33303 3.06721 3.68361L7.36149 7.97788C6.23313 9.25701 6.28015 11.2062 7.50301 12.429L13.8708 18.8021C13.8708 18.8022 13.8709 18.8023 13.871 18.8023C15.0925 20.0239 17.0416 20.074 18.3223 18.9441L22.6167 23.2385C19.9757 25.4372 16.0806 25.3215 13.5774 22.8182ZM24.2532 21.6427L23.7145 22.1815L19.4049 17.8719L19.9436 17.3332C20.2407 17.0361 20.7239 17.0361 21.021 17.3332L24.2532 20.5653C24.5503 20.8624 24.5503 21.3458 24.2532 21.6427Z" fill="white"/>
</g>
<defs>
<clipPath id="clip0">
<rect width="26" height="26" fill="white" transform="translate(0 0.311279)"/>
</clipPath>
</defs>
</svg>
