<svg width="112" height="88" viewBox="0 0 112 88" fill="none" xmlns="http://www.w3.org/2000/svg">
<g clip-path="url(#clip0)">
<path d="M70.4921 85.9351C69.2974 85.9351 68.205 85.7286 67.3516 85.3156C67.1468 85.2124 67.0103 85.0747 66.9078 84.8682L63.938 72.7196L63.9039 72.6164C62.7774 69.3125 59.8758 67.0411 56.5305 66.8346C56.3257 66.8346 56.1892 66.8346 56.0185 66.8346C52.4684 66.8346 49.3278 69.1748 48.1331 72.6508L48.099 72.754L45.1291 84.8682C45.0267 85.0747 44.8902 85.2468 44.6854 85.3156C43.7978 85.7286 42.7055 85.9351 41.5449 85.9351C37.8923 85.9351 33.5912 83.8702 33.2498 80.9105L32.0892 57.921C31.9527 55.5119 31.4406 53.2061 30.5531 51.0035C30.4507 50.7282 30.5531 50.4873 30.6214 50.3841C30.6896 50.2808 30.8603 50.1087 31.1675 50.1087H80.9036C81.2108 50.1087 81.3815 50.2808 81.4497 50.3841C81.518 50.4873 81.6204 50.7282 81.518 51.0035C80.6305 53.2061 80.1185 55.5464 79.9819 57.921L78.8213 80.9105C78.4458 83.8702 74.1447 85.9351 70.4921 85.9351Z" fill="white"/>
<path d="M78.9227 52.1392C78.3766 53.9633 78.0352 55.8561 77.9328 57.8178L76.7722 80.704C76.5332 82.1494 73.6658 83.8702 70.4911 83.8702C69.8426 83.8702 69.2281 83.8013 68.7161 83.6293L65.9511 72.3066L65.9169 72.1345L65.8487 71.9625C64.4491 67.867 60.8307 65.045 56.6661 64.8041H56.632H56.5978C56.393 64.8041 56.1882 64.8041 55.9834 64.8041C51.5798 64.8041 47.6201 67.695 46.1522 71.9969L46.0839 72.169L46.0498 72.341L43.2848 83.6637C42.7728 83.8013 42.1583 83.9046 41.5097 83.9046C38.3692 83.9046 35.4677 82.1838 35.2287 80.7384L34.1022 57.8178C33.9998 55.8905 33.6585 53.9977 33.1123 52.1737H78.9227V52.1392ZM80.9026 48.0094H31.0983C29.1867 48.0094 27.8895 49.9711 28.6063 51.7607C29.4256 53.7568 29.8694 55.8561 30.0059 58.0243L31.1665 81.0481C31.6103 85.2468 36.8331 87.9656 41.5097 87.9656C42.9434 87.9656 44.3089 87.7247 45.5036 87.174C46.2205 86.8299 46.8008 86.2104 47.0398 85.4533L50.0096 73.3047C50.8971 70.7235 53.2525 68.8995 55.9492 68.8995C56.0858 68.8995 56.2223 68.8995 56.3589 68.8995C58.9191 69.0716 61.1038 70.8612 61.923 73.3047L64.8929 85.4533C65.1659 86.2104 65.7121 86.8643 66.429 87.174C67.6237 87.7247 68.9892 87.9656 70.4229 87.9656C75.1336 87.9656 80.3564 85.2124 80.7661 81.0481L81.9267 58.0243C82.0291 55.8561 82.507 53.7568 83.3263 51.7607C84.1114 49.9711 82.8142 48.0094 80.9026 48.0094Z" fill="#C87F1F"/>
<path d="M27.2405 34.9315C26.9674 34.9315 26.7284 34.7595 26.626 34.5186L26.3529 33.8303C25.0216 28.1173 24.373 22.2667 24.373 16.3817C24.373 8.50058 30.7223 2.06491 38.5736 2.06491C39.5294 2.06491 40.4852 2.16816 41.441 2.37465L48.8144 3.88892C51.1698 4.37074 53.5934 4.61164 56.0171 4.61164C58.4407 4.61164 60.8644 4.37074 63.2197 3.88892L70.6272 2.37465C71.583 2.16816 72.5388 2.09933 73.4947 2.09933C81.3118 2.09933 87.6952 8.53499 87.6952 16.4505C87.6952 19.4102 87.5245 22.37 87.1832 25.2953C86.8418 28.1517 86.3639 31.0426 85.6812 33.8647L85.4081 34.553C85.3057 34.7939 85.0667 34.966 84.7937 34.966H27.2405V34.9315Z" fill="white"/>
<path d="M38.5729 4.12984C39.3922 4.12984 40.2114 4.19867 41.0307 4.37075L48.4382 5.88502C50.9301 6.40125 53.4903 6.64216 56.0505 6.64216C58.6107 6.64216 61.1709 6.36684 63.6628 5.88502L71.0362 4.37075C71.8555 4.19867 72.6747 4.12984 73.494 4.12984C80.1846 4.12984 85.6464 9.63629 85.6464 16.4161C85.6464 19.2726 85.4757 22.1979 85.1685 25.0199C84.8612 27.6355 84.4175 30.2855 83.8372 32.8666H28.2297C27.0008 27.4634 26.3864 21.9226 26.3864 16.3817C26.4205 9.63629 31.8481 4.12984 38.5729 4.12984ZM38.5729 0C29.8 0 22.3242 7.15839 22.3242 16.4161C22.3242 22.5076 23.0069 28.5647 24.4065 34.4842L24.7479 35.3101C25.1575 36.3426 26.1474 36.9965 27.2398 36.9965H84.7588C85.8512 36.9965 86.8411 36.3426 87.2508 35.3101L87.5921 34.4842C88.2748 31.5244 88.821 28.5303 89.1624 25.5018C89.5037 22.4732 89.6744 19.4447 89.6744 16.4161C89.6744 7.1928 82.1986 0 73.4257 0C72.3675 0 71.2751 0.103246 70.1487 0.344153L62.8094 1.85843C60.5565 2.30583 58.3035 2.54673 56.0164 2.54673C53.7293 2.54673 51.4763 2.30583 49.2233 1.85843L41.8158 0.344153C40.7235 0.103246 39.6311 0 38.5729 0Z" fill="#C87F1F"/>
<path d="M68.3057 10.8408C68.4081 11.0129 68.3739 11.2538 68.2374 11.4259C67.5205 12.1486 66.7013 12.7681 65.8479 13.2843C64.8921 13.9038 63.868 14.42 62.7756 14.833C60.6251 15.659 58.3038 16.072 55.9826 16.072C54.822 16.072 53.6613 15.9687 52.5348 15.7622C51.4084 15.5557 50.2819 15.246 49.2237 14.833C47.2096 14.0415 45.3322 12.9402 43.7619 11.4947C43.5912 11.3571 43.5571 11.1162 43.6936 10.9097L43.7278 10.8752C43.8302 10.7032 44.0691 10.5999 44.2739 10.6688C46.2538 11.2538 48.1313 11.77 50.0429 12.1142C51.0329 12.3207 52.0569 12.4239 53.0469 12.5272C53.5589 12.596 54.0368 12.596 54.5489 12.6304C55.0609 12.6304 55.5388 12.6648 56.0508 12.6648C58.0649 12.6648 60.0448 12.4584 62.0246 12.0798C63.9363 11.7356 65.8137 11.2194 67.7936 10.6688C67.9643 10.5655 68.2032 10.6688 68.3057 10.8408Z" fill="#C87F1F"/>
<path d="M0 42.5029C0 41.3672 0.92167 40.438 2.04816 40.438H109.952C111.078 40.438 112 41.3672 112 42.5029C112 43.6386 111.078 44.5679 109.952 44.5679H2.04816C0.92167 44.5679 0 43.6731 0 42.5029Z" fill="#C87F1F"/>
</g>
<defs>
<clipPath id="clip0">
<rect width="112" height="88" fill="white"/>
</clipPath>
</defs>
</svg>
