<svg width="82" height="92" viewBox="0 0 82 92" fill="none" xmlns="http://www.w3.org/2000/svg">
<path d="M47.4779 89.9691C46.3002 89.9691 45.2235 89.766 44.3823 89.3598C44.1804 89.2583 44.0458 89.1229 43.9449 88.9198L41.0175 76.9713L40.9838 76.8698C39.8735 73.6203 37.0134 71.3863 33.7159 71.1832C33.514 71.1832 33.3794 71.1832 33.2112 71.1832C29.7118 71.1832 26.6162 73.4849 25.4385 76.9036L25.4048 77.0051L22.4775 88.9198C22.3765 89.1229 22.2419 89.2921 22.04 89.3598C21.1652 89.766 20.0885 89.9691 18.9444 89.9691C15.3441 89.9691 11.1045 87.9382 10.768 85.0272L9.62396 62.4165C9.48937 60.0809 8.98465 57.7792 8.10981 55.6129L4.03841 45.5261C2.69249 39.9073 2.01953 34.1192 2.01953 28.365C2.01953 20.5798 8.27805 14.2502 16.0171 14.2502C16.9592 14.2502 17.9014 14.3517 18.8435 14.5548L26.1114 16.0442C28.4332 16.518 30.8222 16.755 33.2112 16.755C35.6002 16.755 37.9892 16.518 40.3109 16.0442L47.6125 14.5548C48.5546 14.3517 49.4968 14.284 50.4389 14.284C58.1443 14.284 64.4364 20.6137 64.4364 28.3988C64.4364 31.3098 64.2682 34.2207 63.9317 37.0979C63.5952 39.9073 63.1242 42.7506 62.4512 45.5261L58.3798 55.6129C57.505 57.7792 57.0002 60.0809 56.8657 62.4165L55.7216 85.0272C55.3179 87.9382 51.0782 89.9691 47.4779 89.9691Z" fill="white"/>
<path d="M16.0164 16.2811C16.824 16.2811 17.6315 16.3488 18.4391 16.518L25.7407 18.0073C28.197 18.5151 30.7206 18.752 33.2442 18.752C35.7677 18.752 38.2913 18.4812 40.7476 18.0073L48.0156 16.518C48.8231 16.3488 49.6307 16.2811 50.4382 16.2811C57.0332 16.2811 62.4169 21.6968 62.4169 28.365C62.4169 31.1744 62.2487 34.0515 61.9458 36.8271C61.643 39.5349 61.1719 42.2428 60.5663 44.883L56.5285 54.8344C55.5527 57.2377 55.0144 59.7424 54.8798 62.3149L53.7357 84.8241C53.5002 86.2458 50.6738 87.9382 47.5445 87.9382C46.9052 87.9382 46.2995 87.8705 45.7948 87.7012L43.0693 76.5651L43.0357 76.3959L42.9684 76.2266C41.5888 72.1987 38.0222 69.4231 33.9171 69.1861H33.8835H33.8498C33.6479 69.1861 33.446 69.1861 33.2442 69.1861C28.9036 69.1861 25.0004 72.0294 23.5535 76.2605L23.4863 76.4297L23.4526 76.599L20.7271 87.7351C20.2224 87.8705 19.6167 87.972 18.9774 87.972C15.8818 87.972 13.0217 86.2796 12.7862 84.858L11.6422 62.3488C11.5076 59.7763 10.9692 57.2715 9.99343 54.8683L5.95568 44.9168C4.71071 39.5011 4.0714 33.95 4.0714 28.365C4.03775 21.6968 9.42142 16.2811 16.0164 16.2811ZM16.0164 12.2193C7.3689 12.2193 0 19.2597 0 28.365C0 34.3561 0.672959 40.3135 2.05252 46.1354L6.19122 56.3576C6.99877 58.3208 7.43619 60.3856 7.57078 62.518L8.71481 85.1626C9.15224 89.2921 14.3004 91.9661 18.9101 91.9661C20.3233 91.9661 21.6693 91.7292 22.8469 91.1876C23.5536 90.8491 24.1256 90.2399 24.3611 89.4952L27.2885 77.5467C28.1633 75.0081 30.485 73.2141 33.1432 73.2141C33.2778 73.2141 33.4124 73.2141 33.547 73.2141C36.0706 73.3495 38.224 75.1435 39.0316 77.5467L41.959 89.4952C42.2281 90.2399 42.7665 90.883 43.4731 91.1876C44.6508 91.7292 45.9967 91.9661 47.4099 91.9661C52.0533 91.9661 57.2015 89.2583 57.6053 85.1626L58.7493 62.518C58.8502 60.4194 59.3213 58.3208 60.1288 56.3576L64.2675 46.1354C64.9405 43.2244 65.4789 40.2796 65.8153 37.3009C66.1518 34.3223 66.3201 31.3436 66.3201 28.365C66.3201 19.2936 58.9512 12.2193 50.3037 12.2193C49.2606 12.2193 48.1838 12.3208 47.0734 12.5578L39.7719 14.0471C37.5511 14.4871 35.3303 14.7241 33.0759 14.7241C30.8215 14.7241 28.6007 14.4871 26.38 14.0471L19.0784 12.5578C18.1362 12.3208 17.0595 12.2193 16.0164 12.2193Z" fill="#C87F1F"/>
<path d="M45.3237 22.8815C45.4246 23.0508 45.391 23.2877 45.2564 23.457C44.5498 24.1678 43.7422 24.7771 42.901 25.2848C41.9589 25.894 40.9494 26.4018 39.8727 26.808C37.7529 27.6203 35.4648 28.0265 33.1768 28.0265C32.0327 28.0265 30.8887 27.925 29.7783 27.7219C28.668 27.5188 27.5576 27.2141 26.5145 26.808C24.5293 26.0294 22.6786 24.9463 21.1308 23.5247C20.9626 23.3893 20.9289 23.1523 21.0635 22.9492L21.0972 22.9154C21.1981 22.7461 21.4336 22.6446 21.6355 22.7123C23.5871 23.2877 25.4377 23.7954 27.322 24.1339C28.2978 24.337 29.3073 24.4386 30.2831 24.5401C30.7878 24.6078 31.2588 24.6078 31.7636 24.6417C32.2683 24.6417 32.7394 24.6755 33.2441 24.6755C35.2293 24.6755 37.1809 24.4724 39.1325 24.1001C41.0167 23.7616 42.8674 23.2539 44.819 22.7123C44.9872 22.6108 45.2227 22.7123 45.3237 22.8815Z" fill="#C87F1F"/>
<path d="M62.1479 37.9102C71.997 37.9102 79.9813 29.8784 79.9813 19.9706C79.9813 10.0628 71.997 2.03091 62.1479 2.03091C52.2987 2.03091 44.3145 10.0628 44.3145 19.9706C44.3145 29.8784 52.2987 37.9102 62.1479 37.9102Z" fill="white"/>
<path d="M62.1472 4.06181C70.862 4.06181 77.9617 11.2038 77.9617 19.9706C77.9617 28.7373 70.862 35.8793 62.1472 35.8793C53.4324 35.8793 46.3327 28.7373 46.3327 19.9706C46.3327 11.2038 53.4324 4.06181 62.1472 4.06181ZM62.1472 0C51.178 0 42.2949 8.93598 42.2949 19.9706C42.2949 31.0052 51.178 39.9411 62.1472 39.9411C73.1164 39.9411 81.9995 31.0052 81.9995 19.9706C81.9995 8.93598 73.1164 0 62.1472 0Z" fill="#C87F1F"/>
<path d="M69.7855 19.7675V20.8845C69.7855 21.6968 69.1462 22.3399 68.3386 22.3399H65.6468C64.8392 22.3399 64.1999 22.9831 64.1999 23.7954V26.5033C64.1999 27.3157 63.5606 27.9588 62.7531 27.9588H61.5754C60.7678 27.9588 60.1285 27.3157 60.1285 26.5033V23.7954C60.1285 22.9831 59.4892 22.3399 58.6817 22.3399H55.9898C55.1823 22.3399 54.543 21.6968 54.543 20.8845V19.7675C54.543 18.9551 55.1823 18.312 55.9898 18.312H58.6817C59.4892 18.312 60.1285 17.6689 60.1285 16.8565V14.1486C60.1285 13.3363 60.7678 12.6931 61.5754 12.6931H62.6858C63.4933 12.6931 64.1326 13.3363 64.1326 14.1486V16.8565C64.1326 17.6689 64.7719 18.312 65.5795 18.312H68.2713C69.1125 18.312 69.7855 18.9551 69.7855 19.7675Z" fill="#C87F1F"/>
</svg>
