<svg width="95" height="124" viewBox="0 0 95 124" fill="none" xmlns="http://www.w3.org/2000/svg">
<g clip-path="url(#clip0)">
<path d="M52.7538 121.75C51.4452 121.75 50.2489 121.525 49.3142 121.075C49.0899 120.963 48.9403 120.813 48.8282 120.588L45.5755 107.352L45.5381 107.239C44.3044 103.64 41.1265 101.165 37.4626 100.94C37.2382 100.94 37.0513 100.94 36.9018 100.94C33.0135 100.94 29.5739 103.49 28.2654 107.277L28.228 107.389L24.9754 120.588C24.8632 120.813 24.7136 121 24.4893 121.075C23.5173 121.525 22.3209 121.75 21.0497 121.75C17.0493 121.75 12.3386 119.5 11.9273 116.276L10.6562 91.2283C10.5066 88.641 9.94583 86.0913 8.97378 83.6915L4.44997 72.5177C2.99188 66.2933 2.24414 59.9189 2.24414 53.5071C2.24414 44.8829 9.1981 37.8712 17.7971 37.8712C18.8439 37.8712 19.8907 37.9836 20.9376 38.2086L29.0131 39.8585C31.5928 40.3834 34.2473 40.6459 36.9018 40.6459C39.5562 40.6459 42.2107 40.3834 44.7904 39.8585L52.9033 38.2086C53.9502 37.9836 54.997 37.9087 56.0438 37.9087C64.6054 37.9087 71.5968 44.9204 71.5968 53.5446C71.5968 56.7692 71.4098 59.9939 71.036 63.1811C70.6621 66.2933 70.1387 69.443 69.3909 72.5177L64.8671 83.6915C63.8951 86.0913 63.3343 88.641 63.1847 91.2283L61.9136 116.276C61.4649 119.5 56.7542 121.75 52.7538 121.75Z" fill="white"/>
<path d="M17.7961 40.1209C18.6934 40.1209 19.5907 40.1959 20.488 40.3834L28.6009 42.0333C31.3302 42.5957 34.1342 42.8582 36.9382 42.8582C39.7422 42.8582 42.5462 42.5582 45.2755 42.0333L53.351 40.3834C54.2483 40.1959 55.1456 40.1209 56.0429 40.1209C63.3707 40.1209 69.3526 46.1203 69.3526 53.5071C69.3526 56.6193 69.1657 59.8065 68.8292 62.8811C68.4927 65.8808 67.9693 68.8805 67.2963 71.8052L62.8099 82.8291C61.7257 85.4914 61.1275 88.2661 60.978 91.1158L59.7068 116.051C59.4451 117.626 56.3046 119.5 52.8276 119.5C52.1173 119.5 51.4443 119.425 50.8835 119.238L47.8552 106.902L47.8178 106.714L47.743 106.527C46.2101 102.065 42.2471 98.99 37.6859 98.7275H37.6486H37.6112C37.3869 98.7275 37.1625 98.7275 36.9382 98.7275C32.1153 98.7275 27.7784 101.877 26.1708 106.564L26.096 106.752L26.0586 106.939L23.0303 119.275C22.4695 119.425 21.7965 119.538 21.0862 119.538C17.6466 119.538 14.4687 117.663 14.207 116.088L12.8985 91.1158C12.7489 88.2661 12.1507 85.4914 11.0665 82.8291L6.58009 71.8052C5.19677 65.8058 4.48642 59.6565 4.48642 53.4696C4.48642 46.1203 10.4683 40.1209 17.7961 40.1209ZM17.7961 35.6214C8.18772 35.6214 0 43.4581 0 53.5071C0 60.1439 0.747737 66.7433 2.2806 73.1926L6.87918 84.5165C7.77647 86.6912 8.26249 88.9785 8.41204 91.3408L9.68319 116.426C10.1692 121 15.8894 123.962 21.0114 123.962C22.5817 123.962 24.0771 123.7 25.3857 123.1C26.1708 122.725 26.8064 122.05 27.0681 121.225L30.3207 107.989C31.2928 105.177 33.8725 103.19 36.826 103.19C36.9756 103.19 37.1251 103.19 37.2747 103.19C40.0787 103.34 42.4715 105.327 43.3687 107.989L46.6214 121.225C46.9205 122.05 47.5187 122.763 48.3038 123.1C49.6124 123.7 51.1078 123.962 52.6781 123.962C57.8375 123.962 63.5576 120.963 64.0063 116.426L65.2774 91.3408C65.3896 89.016 65.913 86.6912 66.8103 84.5165L71.4089 73.1926C72.1566 69.9679 72.7548 66.7058 73.1287 63.4061C73.5026 60.1064 73.6895 56.8068 73.6895 53.5071C73.6895 43.4581 65.5018 35.6214 55.8933 35.6214C54.7344 35.6214 53.538 35.7339 52.3042 35.9964L44.1913 37.6462C41.7237 38.1336 39.2562 38.3961 36.7513 38.3961C34.2464 38.3961 31.7788 38.1336 29.3113 37.6462L21.3479 35.9964C20.1515 35.7714 18.9551 35.6214 17.7961 35.6214Z" fill="#C87F1F"/>
<path d="M50.3587 47.4327C50.4709 47.6202 50.4335 47.8827 50.284 48.0701C49.4988 48.8576 48.6016 49.5325 47.6669 50.0949C46.6201 50.7699 45.4985 51.3323 44.3021 51.7823C41.9467 52.6822 39.4044 53.1321 36.8621 53.1321C35.5909 53.1321 34.3198 53.0196 33.086 52.7947C31.8523 52.5697 30.6185 52.2322 29.4595 51.7823C27.2537 50.9199 25.1974 49.72 23.4776 48.1451C23.2907 47.9952 23.2533 47.7327 23.4028 47.5077L23.4402 47.4702C23.5524 47.2827 23.8141 47.1702 24.0384 47.2452C26.2068 47.8827 28.2631 48.4451 30.3568 48.8201C31.441 49.045 32.5626 49.1575 33.6468 49.27C34.2076 49.345 34.731 49.345 35.2918 49.3825C35.8526 49.3825 36.3761 49.42 36.9369 49.42C39.1427 49.42 41.3111 49.195 43.4796 48.7826C45.5732 48.4076 47.6295 47.8452 49.7979 47.2452C49.9849 47.1702 50.2466 47.2452 50.3587 47.4327Z" fill="white"/>
<path d="M23.852 47.1702C23.6651 47.1702 23.5155 47.2452 23.4034 47.4327L23.366 47.4702C23.2538 47.6577 23.2912 47.9576 23.4408 48.1076C25.1606 49.6825 27.2168 50.8823 29.4227 51.7448C30.5817 52.1947 31.8154 52.5322 33.0492 52.7572C34.283 52.9821 35.5541 53.0946 36.7879 53.0946H36.8253C36.9 53.0946 36.9748 53.0946 37.0496 53.0946C39.5171 53.0946 41.9847 52.6447 44.2279 51.7448C45.3869 51.2948 46.5459 50.7324 47.5927 50.0574C48.5274 49.4575 49.4246 48.7826 50.2098 48.0326C50.3593 47.8826 50.3967 47.6202 50.2845 47.3952C50.1724 47.2452 50.0228 47.1327 49.8359 47.1327C49.7985 47.1327 49.7611 47.1327 49.6863 47.1327C47.5179 47.7327 45.4242 48.2951 43.368 48.6701C41.1621 49.045 38.9937 49.3075 36.8253 49.3075C36.7131 49.3075 36.6383 49.3075 36.5262 49.3075C36.0775 49.3075 35.6289 49.27 35.1802 49.27C34.6194 49.2325 34.096 49.195 33.5352 49.1575C32.451 49.045 31.3294 48.9325 30.2452 48.7076C28.1515 48.3326 26.0952 47.7702 23.9268 47.1327C23.9642 47.2077 23.9268 47.1702 23.852 47.1702Z" fill="#C87F1F"/>
<path d="M93.0181 7.04932H51.6309V13.8736H93.0181V7.04932Z" fill="white"/>
<path d="M94.8877 15.7484H49.7617V5.1745H94.8877V15.7484ZM53.5004 11.9988H91.149V8.92412H53.5004V11.9988Z" fill="#C87F1F"/>
<path d="M67.8939 2.43726H93.13V16.3484H67.8939C66.6227 16.3484 65.6133 15.336 65.6133 14.0611V4.76202C65.6133 3.48715 66.6227 2.43726 67.8939 2.43726Z" fill="white"/>
<path d="M94.9995 18.2232H67.8941C65.6135 18.2232 63.7441 16.3484 63.7441 14.0611V4.76203C63.7441 2.47476 65.6135 0.599945 67.8941 0.599945H94.9995V18.2232ZM67.8941 4.31207C67.6698 4.31207 67.4828 4.49955 67.4828 4.72453V14.0236C67.4828 14.2486 67.6698 14.4361 67.8941 14.4361H91.2609V4.31207H67.8941Z" fill="#C87F1F"/>
<path d="M30.2829 1.87482H42.9944C49.7988 1.87482 55.3321 7.42426 55.3321 14.2486C55.3321 15.7109 54.1357 16.9108 52.6776 16.9108H20.6371C19.179 16.9108 17.9826 15.7109 17.9826 14.2486C17.9452 7.42426 23.4785 1.87482 30.2829 1.87482Z" fill="white"/>
<path d="M52.6405 18.7856H20.6374C18.1324 18.7856 16.0762 16.7608 16.0762 14.2486C16.0762 6.37436 22.4693 0 30.2832 0H42.9947C50.8086 0 57.2017 6.37436 57.2017 14.2486C57.1643 16.7608 55.1454 18.7856 52.6405 18.7856ZM30.2832 3.74962C24.5256 3.74962 19.8149 8.43665 19.8149 14.2486C19.8149 14.6985 20.1887 15.036 20.6 15.036H52.6031C53.0518 15.036 53.3882 14.661 53.3882 14.2486C53.3882 8.47415 48.7149 3.74962 42.9199 3.74962H30.2832Z" fill="#C87F1F"/>
<path d="M26.4688 16.9108H46.8072V20.248C46.8072 21.4853 45.7978 22.5352 44.5266 22.5352H28.7493C27.5156 22.5352 26.4688 21.5228 26.4688 20.248V16.9108V16.9108Z" fill="white"/>
<path d="M44.5268 24.41H28.7496C26.469 24.41 24.5996 22.5352 24.5996 20.248V15.036H48.6767V20.248C48.6767 22.5352 46.8074 24.41 44.5268 24.41ZM28.3383 18.7856V20.248C28.3383 20.4729 28.5252 20.6604 28.7496 20.6604H44.5642C44.7885 20.6604 44.9754 20.4729 44.9754 20.248V18.7856H28.3383Z" fill="#C87F1F"/>
<path d="M39 23H35V31H39V23Z" fill="#C87F1F"/>
</g>
<defs>
<clipPath id="clip0">
<rect width="95" height="124" fill="white"/>
</clipPath>
</defs>
</svg>
