<svg width="30" height="24" viewBox="0 0 30 24" fill="none" xmlns="http://www.w3.org/2000/svg">
<path d="M23.75 9.53168V3.25002C23.75 1.87125 22.6288 0.75 21.25 0.75H2.49996C1.12119 0.75 0 1.87119 0 3.25002V15.75C0 17.1288 1.12119 18.25 2.50002 18.25H16.5165C17.3354 21.1313 19.9847 23.25 23.125 23.25C24.3335 23.25 25.5219 22.932 26.5631 22.3296C26.8616 22.1569 26.9641 21.7748 26.7908 21.4757C26.618 21.1767 26.2354 21.0735 25.9369 21.2481C25.086 21.74 24.1137 22 23.125 22C20.0231 22 17.5 19.4768 17.5 16.375C17.5 13.2732 20.0232 10.75 23.125 10.75C26.2267 10.75 28.75 13.2732 28.75 16.375V17C28.75 17.6891 28.189 18.25 27.5 18.25C26.8109 18.25 26.25 17.6891 26.25 17V14.5C26.25 14.1546 25.9704 13.875 25.625 13.875C25.4569 13.875 25.3058 13.943 25.1936 14.0508C24.6412 13.5585 23.9213 13.25 23.125 13.25C21.402 13.25 20 14.652 20 16.375C20 18.098 21.402 19.5 23.125 19.5C24.0564 19.5 24.8846 19.0822 25.4576 18.4335C25.9104 19.0767 26.6553 19.5 27.5 19.5C28.8788 19.5 30 18.3788 30 17V16.375C30 12.7951 27.2487 9.84891 23.75 9.53168ZM2.50002 1.99998H21.25C21.276 1.99998 21.2978 2.01328 21.3235 2.01486L12.3889 9.34863C12.071 9.54885 11.6101 9.50731 11.4032 9.38039L2.4273 2.01475C2.45268 2.01322 2.47424 1.99998 2.50002 1.99998ZM22.5 9.53168C19.0013 9.84891 16.25 12.7951 16.25 16.375C16.25 16.586 16.2629 16.7938 16.2816 17H2.50002C1.81096 17 1.25004 16.4391 1.25004 15.7501V3.25002C1.25004 3.07301 1.28912 2.90584 1.3558 2.75314L10.6654 10.3875C11.0291 10.6249 11.4472 10.7501 11.8751 10.7501C12.2865 10.7501 12.6887 10.6341 13.0427 10.4144C13.0781 10.3955 13.1116 10.3729 13.1434 10.3467L22.3942 2.75303C22.4609 2.90584 22.5001 3.07301 22.5001 3.25008V9.53168H22.5ZM23.125 18.25C22.0911 18.25 21.25 17.409 21.25 16.375C21.25 15.3411 22.0911 14.5 23.125 14.5C24.159 14.5 25 15.3411 25 16.375C25 17.409 24.159 18.25 23.125 18.25Z" fill="#666666"/>
</svg>
