<svg width="23" height="24" viewBox="0 0 23 24" fill="none" xmlns="http://www.w3.org/2000/svg">
<g clip-path="url(#clip0)">
<path d="M13.0539 23.9531H9.36342C8.74699 23.9531 8.24556 23.4309 8.24556 22.7889V14.12H6.09247C5.47605 14.12 4.97461 13.5976 4.97461 12.9558V9.24115C4.97461 8.59918 5.47605 8.07697 6.09247 8.07697H8.24556V6.2168C8.24556 4.37238 8.80167 2.80316 9.8536 1.67908C10.9103 0.549866 12.387 -0.046875 14.1241 -0.046875L16.9386 -0.0421143C17.554 -0.0410156 18.0545 0.481201 18.0545 1.12207V4.57105C18.0545 5.21301 17.5533 5.73523 16.937 5.73523L15.042 5.73596C14.4641 5.73596 14.317 5.85663 14.2855 5.89362C14.2336 5.95496 14.1719 6.12836 14.1719 6.60718V8.07678H16.7946C16.992 8.07678 17.1833 8.1275 17.3477 8.22308C17.7024 8.42944 17.9228 8.81964 17.9228 9.24133L17.9214 12.956C17.9214 13.5976 17.42 14.1198 16.8036 14.1198H14.1719V22.7889C14.1719 23.4309 13.6703 23.9531 13.0539 23.9531ZM9.59655 22.5461H12.8207V13.4901C12.8207 13.0615 13.1557 12.7128 13.5671 12.7128H16.5704L16.5717 9.48395H13.5669C13.1555 9.48395 12.8207 9.13532 12.8207 8.70667V6.60718C12.8207 6.0575 12.8744 5.43237 13.2728 4.96253C13.7542 4.39453 14.5128 4.32898 15.0417 4.32898L16.7035 4.32825V1.3645L14.123 1.36011C11.3314 1.36011 9.59655 3.22119 9.59655 6.2168V8.70667C9.59655 9.13513 9.26179 9.48395 8.85037 9.48395H6.32561V12.7128H8.85037C9.26179 12.7128 9.59655 13.0615 9.59655 13.4901V22.5461ZM16.936 1.36487H16.9361H16.936Z" fill="#666666"/>
</g>
<defs>
<clipPath id="clip0">
<rect width="23" height="24" fill="white"/>
</clipPath>
</defs>
</svg>
