<svg width="26" height="26" viewBox="0 0 26 26" fill="none" xmlns="http://www.w3.org/2000/svg">
<g clip-path="url(#clip0)">
<path d="M25.3306 19.1767L22.0984 15.9445C21.2073 15.0535 19.7573 15.0535 18.8662 15.9445L17.397 17.4137C16.722 18.0888 15.6235 18.0885 14.9486 17.4139L8.58065 11.0405C7.90398 10.3639 7.90388 9.26865 8.58065 8.59189C8.81729 8.35525 9.49679 7.67574 10.0498 7.12274C10.937 6.23559 10.9494 4.7901 10.0489 3.88975L6.81762 0.668587C5.92651 -0.222473 4.47655 -0.222472 3.58782 0.666251C2.92279 1.32549 2.70829 1.53817 2.4101 1.83376C-0.803342 5.04715 -0.803342 10.2757 2.40995 13.489L12.4998 23.5841C15.7208 26.8052 20.934 26.8054 24.1552 23.5841L25.3306 22.4088C26.2217 21.5177 26.2217 20.0678 25.3306 19.1767ZM4.66286 1.74596C4.95988 1.44894 5.44312 1.44889 5.7411 1.74677L8.97242 4.96793C9.27015 5.26566 9.27015 5.74753 8.97242 6.04531L8.43368 6.584L4.12692 2.27724L4.66286 1.74596ZM13.5774 22.5069L3.48748 12.4117C1.00133 9.92556 0.864673 6.02175 3.06721 3.37233L7.36149 7.6666C6.23313 8.94573 6.28015 10.8949 7.50301 12.1177L13.8708 18.4908C13.8708 18.4909 13.8709 18.491 13.871 18.491C15.0925 19.7126 17.0416 19.7627 18.3223 18.6328L22.6167 22.9272C19.9757 25.1259 16.0806 25.0102 13.5774 22.5069ZM24.2532 21.3314L23.7145 21.8702L19.4049 17.5606L19.9436 17.0219C20.2407 16.7249 20.7239 16.7248 21.021 17.0219L24.2532 20.2541C24.5503 20.5511 24.5503 21.0345 24.2532 21.3314Z" fill="#666666"/>
</g>
<defs>
<clipPath id="clip0">
<rect width="26" height="26" fill="white"/>
</clipPath>
</defs>
</svg>
