<svg width="137" height="98" viewBox="0 0 137 98" fill="none" xmlns="http://www.w3.org/2000/svg">
<g clip-path="url(#clip0)">
<path d="M120.859 43.4635C120.476 42.6349 120.17 41.8063 119.635 41.1284C118.564 39.5465 117.34 37.9647 116.193 36.3828C113.974 33.2191 112.827 29.7541 113.286 25.7617C113.439 24.2552 113.362 22.7487 113.057 21.2421C112.827 20.2629 112.598 19.359 112.368 18.3797C111.909 16.5719 111.221 14.764 110.303 13.1069C107.855 8.73791 104.413 5.57419 100.206 3.38972C91.7913 -0.903899 83.224 -1.05455 74.5037 2.4858C73.3563 2.93776 72.2854 3.46505 71.291 4.06766C74.0448 4.06766 76.875 4.06766 79.6288 4.06766C89.8025 4.14299 98.0638 8.51193 104.183 17.0238C111.068 26.6657 112.215 37.2867 108.161 48.5857C107.396 50.7702 106.325 52.8793 105.025 54.7625C102.959 58.7548 99.9761 62.3705 94.3156 63.877C93.4742 64.103 92.6327 64.2537 91.8678 64.329L91.7148 64.555C90.7204 66.0615 92.0208 67.8693 94.3156 68.0953C96.8399 68.3213 99.2877 68.3213 101.812 68.0953C101.888 68.0953 101.965 68.0953 102.041 68.0953C102.041 68.0953 102.041 68.0953 102.041 68.02C102.5 67.9447 102.883 67.9447 103.342 67.8693C104.107 67.794 105.254 67.6434 106.631 67.4927C107.472 67.4927 108.314 67.4927 109.232 67.4927C111.144 67.4174 112.98 67.1161 114.816 66.2875C117.417 65.0823 118.335 62.8225 117.34 59.96C116.958 58.8301 116.805 57.7756 117.264 56.5703C117.646 55.5158 117.57 54.5365 116.958 53.5573C116.881 53.4066 116.881 53.1806 116.958 53.03C117.264 52.3521 117.57 51.6741 117.799 50.9208C118.105 49.8663 118.029 48.8117 117.723 47.7571C117.646 47.3805 117.723 47.1545 118.029 46.9285C118.717 46.4766 119.329 46.0999 119.941 45.5727C120.4 45.1207 120.706 44.5181 121.088 43.9908C120.935 43.9908 120.935 43.6895 120.859 43.4635Z" fill="#5F7465"/>
<path d="M82.3837 66.6641L76.1877 58.6795C75.4992 57.7756 75.4227 56.6457 75.9582 55.6664C88.1207 33.7463 76.9526 14.8393 67.0849 8.05995C61.1949 3.99231 54.7695 2.03381 48.4205 2.03381C39.4708 2.03381 30.827 6.02613 24.478 13.6341C14.8398 25.2344 11.2446 45.1207 26.1609 61.6172C30.5975 66.5135 36.6405 69.5265 44.5193 70.8824C47.1201 71.3344 49.7209 71.5603 52.2452 71.1084C59.2826 69.9032 59.971 68.5473 58.5177 67.794C57.3703 67.7187 56.2229 67.568 54.999 67.4174C54.4635 67.4174 53.928 67.4927 53.4691 67.4927C40.2357 67.4927 29.0676 59.1314 25.0135 47.4558C24.7075 46.6272 24.4015 45.7233 24.0955 44.8947C20.8828 34.349 24.172 19.8862 36.411 12.7302C47.1966 6.40276 60.3535 9.11452 68.3088 19.133C72.363 24.2552 74.3518 30.0553 74.4283 36.5334C74.4283 43.0115 72.5925 48.7364 68.9208 53.6326C68.2323 54.5365 68.1558 55.6664 68.6913 56.6457C68.8443 56.495 68.8443 56.495 68.8443 56.5703C69.3797 57.4743 69.9152 58.3782 70.4507 59.2068C71.1391 60.3367 71.8275 61.5419 72.516 62.7471C73.8164 65.0823 75.1168 67.342 76.3407 69.6772C76.7996 70.5811 77.794 71.1837 78.8649 71.1837C79.2474 71.1837 79.7064 71.1837 80.0888 71.1837C82.4601 71.1084 83.7605 68.4719 82.3837 66.6641Z" fill="#C87F1F"/>
<path d="M19.9652 88.6596H20.7302V94.987C20.6537 95.6649 20.3477 96.2675 19.8887 96.7195C19.2768 97.3221 18.5884 97.5481 17.7469 97.5481C16.9055 97.5481 16.2171 97.2468 15.6051 96.7195C14.9932 96.1169 14.7637 95.4389 14.7637 94.6104V88.5842H15.5286V94.6104C15.5286 95.213 15.7581 95.7403 16.2171 96.1169C16.676 96.4935 17.2115 96.7948 17.8234 96.7948C18.4354 96.7948 18.9708 96.5688 19.4298 96.1169C19.8887 95.6649 20.0417 95.1376 20.0417 94.6104V88.6596H19.9652Z" fill="#5F7465"/>
<path d="M30.4441 94.1583H27.6138L26.3899 97.4727H25.625L29.0672 88.1322L32.5094 97.4727H31.7445L30.4441 94.1583ZM30.1381 93.4804L28.9907 90.392L27.8433 93.4804H30.1381Z" fill="#5F7465"/>
<path d="M37.3281 97.4728V88.5842H38.0931V96.7195H41.4588V97.4728H37.3281Z" fill="#5F7465"/>
<path d="M47.3489 88.6595V97.5481H46.584V88.6595H47.3489Z" fill="#5F7465"/>
<path d="M55.3055 89.3375V97.4728H54.5406V89.3375H52.3223V88.5842H57.5238V89.3375H55.3055V89.3375Z" fill="#5F7465"/>
<path d="M64.8667 93.9324L61.7305 88.6595H62.5719L65.1727 93.1038L67.7735 88.6595H68.6149L65.4787 93.9324V97.4728H64.7137V93.9324H64.8667Z" fill="#5F7465"/>
<path d="M96.6114 88.6595V89.4128H92.7102V92.7272H96.6114V93.4805H92.7102V96.7948H96.6114V97.5481H91.9453V88.6595H96.6114Z" fill="#C87F1F"/>
<path d="M101.891 88.6595H102.656L106.939 95.9662V88.6595H107.704V97.5481H107.016L102.656 90.1661V97.5481H101.891V88.6595Z" fill="#C87F1F"/>
<path d="M115.507 89.3375V97.4728H114.742V89.3375H112.523V88.5842H117.725V89.3375H115.507V89.3375Z" fill="#C87F1F"/>
<path d="M126.062 94.1583H123.155L121.931 97.4727H121.166L124.608 88.1322L128.05 97.4727H127.286L126.062 94.1583ZM125.756 93.4804L124.608 90.392L123.461 93.4804H125.756Z" fill="#C87F1F"/>
<path d="M132.869 97.4728V88.5842H133.634V96.7195H137V97.4728H132.869Z" fill="#C87F1F"/>
<path d="M10.2497 97.322L9.33182 96.1168C9.25532 95.9661 9.17883 95.8155 9.33182 95.6648C11.1677 92.2751 9.4848 89.3374 7.95493 88.3581C7.03701 87.7555 6.04259 87.4542 5.04818 87.4542C3.67129 87.4542 2.3709 88.0568 1.37649 89.2621C-0.0768923 91.0699 -0.688841 94.083 1.60597 96.6441C2.29441 97.3973 3.21233 97.8493 4.43623 98.0753C4.8187 98.1506 5.20116 98.1506 5.66013 98.0753C6.73104 97.8493 6.88402 97.6986 6.65454 97.548C6.50156 97.548 6.27207 97.548 6.11909 97.4727C6.04259 97.4727 5.9661 97.4727 5.88961 97.4727C3.82428 97.4727 2.14142 96.1921 1.52947 94.3843C1.45298 94.2336 1.45298 94.1583 1.37649 94.0076C0.917524 92.3505 1.37649 90.166 3.28882 89.0361C4.97168 88.0568 6.96052 88.5088 8.18441 90.0153C8.79636 90.7686 9.10234 91.6725 9.10234 92.7271C9.10234 93.7063 8.79636 94.6103 8.26091 95.3635C8.18441 95.5142 8.18441 95.6648 8.26091 95.8155C8.3374 95.9661 8.41389 96.1168 8.49039 96.1921C8.56688 96.3428 8.71987 96.5687 8.79636 96.7194C9.02584 97.096 9.17883 97.3973 9.40831 97.774C9.4848 97.9246 9.63779 98 9.79078 98C9.86727 98 9.94377 98 9.94377 98C10.2497 98 10.4027 97.6233 10.2497 97.322Z" fill="#5F7465"/>
<path d="M87.9661 93.631C87.8896 93.4804 87.8896 93.405 87.8131 93.2544C87.6601 93.0284 87.4306 92.7271 87.2776 92.5011C86.8952 91.9738 86.7422 91.4465 86.8187 90.8439C86.8187 90.618 86.8187 90.392 86.7422 90.166C86.7422 90.0153 86.6657 89.8647 86.6657 89.714C86.5892 89.4127 86.5127 89.1114 86.3597 88.8854C85.9772 88.2075 85.4418 87.6802 84.7533 87.3789C83.453 86.701 82.0761 86.701 80.7757 87.2283C80.6227 87.3036 80.4697 87.3789 80.2402 87.4542C80.6992 87.4542 81.0817 87.4542 81.5406 87.4542C83.147 87.4542 84.4474 88.1322 85.3653 89.4881C86.4362 90.9946 86.5892 92.6518 85.9772 94.3843C85.8243 94.7609 85.6713 95.0622 85.5183 95.3635C85.2123 95.9662 84.7533 96.5688 83.8354 96.7947C83.6824 96.7947 83.6059 96.8701 83.453 96.8701C83.3 97.0961 83.5294 97.3974 83.8354 97.3974C84.2179 97.3974 84.6004 97.3974 84.9828 97.3974C85.0593 97.3974 85.1358 97.3974 85.2123 97.3974C85.2888 97.3974 85.5183 97.3974 85.7478 97.322C85.9007 97.322 85.9772 97.322 86.1302 97.322C86.4362 97.322 86.7422 97.2467 86.9717 97.1714C87.3541 97.0207 87.5071 96.6441 87.3541 96.1921C87.2776 96.0415 87.2776 95.8155 87.3541 95.6648C87.4306 95.5142 87.4306 95.3635 87.2776 95.2129V95.1376C87.3541 95.0622 87.3541 94.9116 87.4306 94.8363C87.5071 94.6856 87.4306 94.5349 87.4306 94.309C87.4306 94.2336 87.4306 94.2336 87.5071 94.1583C87.5836 94.083 87.7366 94.0077 87.8131 93.9323C87.8896 93.857 87.9661 93.7817 87.9661 93.7064C88.0426 93.7064 88.0426 93.631 87.9661 93.631Z" fill="#C87F1F"/>
</g>
<defs>
<clipPath id="clip0">
<rect width="137" height="98" fill="white"/>
</clipPath>
</defs>
</svg>
