<svg width="93" height="105" viewBox="0 0 93 105" fill="none" xmlns="http://www.w3.org/2000/svg">
<path d="M84.7793 102.785H8.2194C4.89641 102.785 2.18555 100.038 2.18555 96.6708V78.4177C2.18555 64.3734 13.4225 53.0316 27.2391 53.0316H65.7596C79.62 53.0316 90.8132 64.4177 90.8132 78.4177V96.7152C90.8132 100.038 88.1023 102.785 84.7793 102.785Z" fill="white"/>
<path d="M81.0626 102.308H11.9356C7.82987 102.308 4.51367 98.9792 4.51367 94.8581V78.5326C4.51367 64.9015 15.5677 53.8461 29.1088 53.8461H63.8894C77.47 53.8461 88.4845 64.9412 88.4845 78.5326V94.8978C88.4845 98.9792 85.1683 102.308 81.0626 102.308ZM29.1088 57.769C17.739 57.769 8.46153 67.0809 8.46153 78.5326V94.8978C8.46153 96.7998 10.0012 98.3848 11.9356 98.3848H81.1021C82.997 98.3848 84.5762 96.8394 84.5762 94.8978V78.5326C84.5762 67.0809 75.2987 57.8086 63.9289 57.8086H29.1088V57.769Z" fill="#C87F1F"/>
<path d="M46.5227 39.962C56.8097 39.962 65.1489 31.5121 65.1489 21.0886C65.1489 10.6651 56.8097 2.21521 46.5227 2.21521C36.2357 2.21521 27.8965 10.6651 27.8965 21.0886C27.8965 31.5121 36.2357 39.962 46.5227 39.962Z" fill="white"/>
<path d="M46.5216 42.2215C35.0223 42.2215 25.7091 32.7405 25.7091 21.1329C25.6654 9.48101 35.0223 0 46.5216 0C57.9771 0 67.334 9.48101 67.334 21.0886C67.334 32.7405 57.9771 42.2215 46.5216 42.2215ZM46.5216 4.43038C37.4271 4.43038 30.0815 11.9177 30.0815 21.0886C30.0815 30.3038 37.4708 37.7468 46.5216 37.7468C55.5723 37.7468 62.9616 30.3038 62.9616 21.0886C62.9616 11.9177 55.5723 4.43038 46.5216 4.43038Z" fill="#C87F1F"/>
</svg>
