<svg width="129" height="129" viewBox="0 0 129 129" fill="none" xmlns="http://www.w3.org/2000/svg">
<g opacity="0.4" filter="url(#filter0_d)">
<path d="M64.5 0C31.0903 0 4 27.085 4 60.4973C4 93.9097 31.0876 120.995 64.5 120.995C97.9151 120.995 125 93.9097 125 60.4973C125 27.085 97.9151 0 64.5 0ZM64.5 18.0894C75.5551 18.0894 84.5134 27.0504 84.5134 38.1002C84.5134 49.1526 75.5551 58.1109 64.5 58.1109C53.4502 58.1109 44.4919 49.1526 44.4919 38.1002C44.4919 27.0504 53.4502 18.0894 64.5 18.0894ZM64.4867 105.177C53.4609 105.177 43.3625 101.162 35.5734 94.5156C33.676 92.8972 32.5811 90.5241 32.5811 88.0341C32.5811 76.8275 41.6511 67.8585 52.8603 67.8585H76.145C87.3569 67.8585 96.3923 76.8275 96.3923 88.0341C96.3923 90.5268 95.3027 92.8946 93.4027 94.513C85.6163 101.162 75.5152 105.177 64.4867 105.177Z" fill="#C87F1F"/>
</g>
<defs>
<filter id="filter0_d" x="0" y="0" width="129" height="128.995" filterUnits="userSpaceOnUse" color-interpolation-filters="sRGB">
<feFlood flood-opacity="0" result="BackgroundImageFix"/>
<feColorMatrix in="SourceAlpha" type="matrix" values="0 0 0 0 0 0 0 0 0 0 0 0 0 0 0 0 0 0 127 0"/>
<feOffset dy="4"/>
<feGaussianBlur stdDeviation="2"/>
<feColorMatrix type="matrix" values="0 0 0 0 0 0 0 0 0 0 0 0 0 0 0 0 0 0 0.25 0"/>
<feBlend mode="normal" in2="BackgroundImageFix" result="effect1_dropShadow"/>
<feBlend mode="normal" in="SourceGraphic" in2="effect1_dropShadow" result="shape"/>
</filter>
</defs>
</svg>
